<svg xmlns="http://www.w3.org/2000/svg" width="20.278" height="22.424" viewBox="0 0 20.278 22.424">
  <g id="Group_2" data-name="Group 2" transform="translate(-992.025 -2625)">
    <path id="Path_705" data-name="Path 705" d="M287.007,69.364a10.139,10.139,0,1,1,10.138-10.139,10.139,10.139,0,0,1-10.138,10.139Zm0-19.783a9.645,9.645,0,1,0,9.644,9.644,9.645,9.645,0,0,0-9.644-9.644Z" transform="translate(715.158 2578.06)" fill="#d1d3d4"/>
    <path id="Path_712" data-name="Path 712" d="M289.4,49.333a2.394,2.394,0,1,1-2.393-2.393,2.394,2.394,0,0,1,2.393,2.393Z" transform="translate(715.158 2578.06)" fill="#ffbd1a"/>
    <g id="Group_13" data-name="Group 13" transform="translate(715.158 2578.06)">
      <path id="Path_713" data-name="Path 713" d="M287.767,50.344h-1.5v-.315l.539-.544q.237-.245.311-.339a.756.756,0,0,0,.106-.175.455.455,0,0,0,.032-.167.242.242,0,0,0-.072-.192.271.271,0,0,0-.189-.063.54.54,0,0,0-.241.057,1.284,1.284,0,0,0-.245.163l-.246-.292a1.591,1.591,0,0,1,.262-.19,1.006,1.006,0,0,1,.227-.086,1.219,1.219,0,0,1,.275-.03.816.816,0,0,1,.355.074.571.571,0,0,1,.239.205.549.549,0,0,1,.084.3.733.733,0,0,1-.052.277,1.048,1.048,0,0,1-.161.266,3.812,3.812,0,0,1-.385.388l-.275.259v.021h.934Z"/>
    </g>
    <g id="Group_107" data-name="Group 107" transform="translate(715.158 2578.06)">
      <g id="Group_106" data-name="Group 106">
        <path id="Path_2434" data-name="Path 2434" d="M292.5,58.338V63.01h-1.544v1.362l-.388-.24-.16-.1-.357-.221-.075-.046-.422-.261-.033-.021-.4-.247L289,63.157l-.236-.146h-4.608V58.338Z" fill="#668e19"/>
      </g>
      <path id="Path_2435" data-name="Path 2435" d="M280.441,55.328V60h1.544l-.007,1.362,2.2-1.362h4.608V55.328Z" fill="#8dc63f"/>
      <path id="Path_2436" data-name="Path 2436" d="M283.331,57.584a.434.434,0,1,1-.435-.434.434.434,0,0,1,.435.434Z" fill="#fff"/>
      <path id="Path_2437" data-name="Path 2437" d="M285.05,57.584a.434.434,0,1,1-.435-.434.434.434,0,0,1,.435.434Z" fill="#fff"/>
      <path id="Path_2438" data-name="Path 2438" d="M286.746,57.584a.434.434,0,1,1-.435-.434.434.434,0,0,1,.435.434Z" fill="#fff"/>
    </g>
  </g>
</svg>
