<svg xmlns="http://www.w3.org/2000/svg" width="20.278" height="22.424" viewBox="0 0 20.278 22.424">
  <g id="Group_4" data-name="Group 4" transform="translate(-1050.08 -2624)">
    <path id="Path_707" data-name="Path 707" d="M345.058,69.364A10.139,10.139,0,1,1,355.2,59.224,10.139,10.139,0,0,1,345.058,69.364Zm0-19.783a9.645,9.645,0,1,0,9.644,9.644,9.645,9.645,0,0,0-9.644-9.644Z" transform="translate(715.158 2577.06)" fill="#d1d3d4"/>
    <path id="Path_716" data-name="Path 716" d="M347.451,49.333a2.394,2.394,0,1,1-2.393-2.393,2.394,2.394,0,0,1,2.393,2.393Z" transform="translate(715.158 2577.06)" fill="#ffbd1a"/>
    <g id="Group_15" data-name="Group 15" transform="translate(715.158 2577.06)">
      <path id="Path_717" data-name="Path 717" d="M345.709,49.9h-.258v.444h-.443V49.9h-.914v-.315l.939-1.383h.418v1.346h.258Zm-.7-.352v-.363c0-.061,0-.148.008-.264s.008-.182.011-.2h-.011a1.806,1.806,0,0,1-.131.234l-.393.593Z"/>
    </g>
    <g id="Group_115" data-name="Group 115" transform="translate(717.254 2576.06)">
      <path id="Path_2449" data-name="Path 2449" d="M346.51,60.781v-1.3h-.954a3.013,3.013,0,0,0-.4-.959l.676-.676-.919-.918-.676.675a2.969,2.969,0,0,0-.959-.4v-.954h-1.3V57.2a3,3,0,0,0-.959.4l-.675-.675-.918.918.675.676a2.966,2.966,0,0,0-.4.959h-.955v1.3h.955a2.965,2.965,0,0,0,.4.959l-.675.676.918.918.675-.676a3,3,0,0,0,.959.4v.954h1.3v-.954a2.971,2.971,0,0,0,.959-.4l.676.676.919-.918-.676-.676a3.013,3.013,0,0,0,.4-.959Z" fill="#8dc63f"/>
      <path id="Path_2450" data-name="Path 2450" d="M344.082,60.131a1.452,1.452,0,1,1-1.452-1.451,1.452,1.452,0,0,1,1.452,1.451Z" fill="#f1f2f2"/>
    </g>
  </g>
</svg>
