<svg xmlns="http://www.w3.org/2000/svg" width="20.278" height="22.424" viewBox="0 0 20.278 22.424">
  <g id="Group_6" data-name="Group 6" transform="translate(-1108.127 -2608)">
    <path id="Path_709" data-name="Path 709" d="M403.108,69.364a10.139,10.139,0,1,1,10.139-10.139A10.139,10.139,0,0,1,403.108,69.364Zm0-19.783a9.645,9.645,0,1,0,9.645,9.645,9.645,9.645,0,0,0-9.645-9.645Z" transform="translate(715.158 2561.06)" fill="#d1d3d4"/>
    <path id="Path_720" data-name="Path 720" d="M405.5,49.333a2.394,2.394,0,1,1-2.394-2.393,2.394,2.394,0,0,1,2.394,2.393Z" transform="translate(715.158 2561.06)" fill="#ffbd1a"/>
    <g id="Group_17" data-name="Group 17" transform="translate(715.158 2561.06)">
      <path id="Path_721" data-name="Path 721" d="M402.356,49.434a1.417,1.417,0,0,1,.269-.946,1.01,1.01,0,0,1,.806-.311,1.53,1.53,0,0,1,.287.022v.362a1.222,1.222,0,0,0-.258-.029.888.888,0,0,0-.381.07.475.475,0,0,0-.221.208.973.973,0,0,0-.086.391h.02a.5.5,0,0,1,.464-.249.577.577,0,0,1,.45.18.723.723,0,0,1,.162.5.747.747,0,0,1-.193.543.709.709,0,0,1-.536.2.769.769,0,0,1-.414-.11.716.716,0,0,1-.273-.321,1.235,1.235,0,0,1-.1-.51Zm.774.577a.265.265,0,0,0,.222-.1.436.436,0,0,0,.079-.278.376.376,0,0,0-.074-.246.259.259,0,0,0-.218-.091.338.338,0,0,0-.236.09.276.276,0,0,0-.1.208.477.477,0,0,0,.091.294.283.283,0,0,0,.236.123Z"/>
    </g>
    <g id="Group_117" data-name="Group 117" transform="translate(715.158 2561.06)">
      <path id="Rectangle_30" data-name="Rectangle 30" d="M.76,0h4.3a.76.76,0,0,1,.76.76V5.065a.759.759,0,0,1-.759.759H.759A.759.759,0,0,1,0,5.065V.76A.76.76,0,0,1,.76,0Z" transform="translate(399.986 56.345)" fill="#8dc63f"/>
      <path id="Path_2453" data-name="Path 2453" d="M402.9,60.743a.5.5,0,0,1-.363-.157l-2.489-2.637a.5.5,0,1,1,.726-.686l2.122,2.246,4.963-5.4a.5.5,0,1,1,.737.677l-5.327,5.8a.5.5,0,0,1-.366.161Z" fill="#668e19"/>
    </g>
  </g>
</svg>
