<svg xmlns="http://www.w3.org/2000/svg" width="28.096" height="28.097" viewBox="0 0 28.096 28.097">
  <g id="Group_105" data-name="Group 105" transform="translate(-549.089 -399)">
    <g id="Group_104" data-name="Group 104">
      <path id="Path_2387" data-name="Path 2387" d="M382.2,203.953a1.276,1.276,0,0,1,.759.2.643.643,0,0,1,.271.557.743.743,0,0,1-.126.43,1.043,1.043,0,0,1-.406.322,1.511,1.511,0,0,1,.484.388.7.7,0,0,1,.139.417.749.749,0,0,1-.3.637,1.345,1.345,0,0,1-.832.226,1.36,1.36,0,0,1-.834-.22.754.754,0,0,1-.289-.635.79.79,0,0,1,.129-.457,1.125,1.125,0,0,1,.433-.343,1.172,1.172,0,0,1-.358-.354.8.8,0,0,1-.113-.415.637.637,0,0,1,.277-.552A1.292,1.292,0,0,1,382.2,203.953Zm-.367,2.285a.261.261,0,0,0,.093.21.381.381,0,0,0,.258.079c.248,0,.371-.091.371-.272a.324.324,0,0,0-.081-.2,1.139,1.139,0,0,0-.29-.225.885.885,0,0,0-.27.2A.334.334,0,0,0,381.831,206.238Zm.363-1.683a.27.27,0,0,0-.181.062.2.2,0,0,0-.075.162c0,.121.082.228.247.321a.74.74,0,0,0,.206-.159.261.261,0,0,0,.054-.162.2.2,0,0,0-.074-.163A.272.272,0,0,0,382.194,204.555Z" transform="translate(178.318 207.314)" fill="#212121"/>
      <path id="Path_2388" data-name="Path 2388" d="M385.839,205.545a2.077,2.077,0,0,1-.275,1.2.964.964,0,0,1-.84.381.952.952,0,0,1-.834-.4,2.055,2.055,0,0,1-.281-1.184,2.1,2.1,0,0,1,.275-1.208,1.089,1.089,0,0,1,1.674.017A2.076,2.076,0,0,1,385.839,205.545Zm-1.4,0a2.618,2.618,0,0,0,.066.721c.043.13.116.2.219.2s.177-.067.22-.2a3.946,3.946,0,0,0,0-1.432c-.043-.137-.116-.206-.219-.206s-.176.066-.219.2A2.661,2.661,0,0,0,384.439,205.545Z" transform="translate(178.318 207.314)" fill="#212121"/>
      <path id="Path_2389" data-name="Path 2389" d="M387.661,204.918a1.1,1.1,0,0,1-.209.719.726.726,0,0,1-.6.255.7.7,0,0,1-.576-.263,1.316,1.316,0,0,1-.005-1.425.711.711,0,0,1,.581-.251.727.727,0,0,1,.587.26A1.063,1.063,0,0,1,387.661,204.918Zm-.956.009a1.111,1.111,0,0,0,.04.35q.039.108.12.108c.054,0,.094-.035.119-.106a1.6,1.6,0,0,0,0-.7c-.025-.072-.065-.107-.119-.107s-.1.036-.121.109A1.132,1.132,0,0,0,386.7,204.927Zm2.5-.929-1.713,3.087h-.627L388.574,204Zm.809,2.15a1.1,1.1,0,0,1-.21.716.728.728,0,0,1-.6.255.7.7,0,0,1-.575-.263,1.313,1.313,0,0,1-.005-1.423.711.711,0,0,1,.58-.251.727.727,0,0,1,.587.26A1.064,1.064,0,0,1,390.01,206.148Zm-.957.008a1.049,1.049,0,0,0,.041.35q.039.108.12.108c.06,0,.1-.041.125-.123a1.621,1.621,0,0,0,0-.67c-.023-.082-.065-.123-.125-.123s-.1.036-.122.109A1.132,1.132,0,0,0,389.053,206.156Z" transform="translate(178.318 207.314)" fill="#212121"/>
      <path id="Path_2395" data-name="Path 2395" d="M384.819,217.842a12.107,12.107,0,1,1,12.108-12.108A12.121,12.121,0,0,1,384.819,217.842Zm0-23.66a11.553,11.553,0,1,0,11.553,11.552A11.565,11.565,0,0,0,384.819,194.182Z" transform="translate(178.318 207.314)" fill="#d1d3d4"/>
      <path id="Path_2397" data-name="Path 2397" d="M384.819,219.783a14.049,14.049,0,0,1,0-28.1v4.436a9.61,9.61,0,1,0,7.972,4.239l3.676-2.482a14.05,14.05,0,0,1-11.648,21.9Z" transform="translate(178.318 207.314)" fill="#212121"/>
    </g>
  </g>
</svg>
