<svg xmlns="http://www.w3.org/2000/svg" width="26.155" height="26.992" viewBox="0 0 26.155 26.992">
  <g id="Group_101" data-name="Group 101" transform="translate(-440 -399)">
    <g id="Group_99" data-name="Group 99" transform="translate(178.318 207.314)">
      <path id="Path_2399" data-name="Path 2399" d="M274.189,206.488h-.339v.6h-.825v-.6H271.8v-.612L273.078,204h.772v1.867h.339Zm-1.164-.623v-.359c0-.067,0-.158.008-.273a1.668,1.668,0,0,1,.012-.181h-.024a2.139,2.139,0,0,1-.162.3l-.342.509Z" fill="#ff831d"/>
      <path id="Path_2400" data-name="Path 2400" d="M275.657,205.063a.954.954,0,0,1,.481.123.858.858,0,0,1,.333.35,1.093,1.093,0,0,1,.12.522,1.011,1.011,0,0,1-.312.794,1.388,1.388,0,0,1-.943.276,2.012,2.012,0,0,1-.883-.167v-.684a2.292,2.292,0,0,0,.415.14,1.791,1.791,0,0,0,.4.054.561.561,0,0,0,.356-.1.347.347,0,0,0,.125-.29.332.332,0,0,0-.127-.277.619.619,0,0,0-.384-.1,1.364,1.364,0,0,0-.425.074l-.306-.152.116-1.631h1.762v.695h-1.052l-.038.408a1.862,1.862,0,0,1,.234-.035Z" fill="#ff831d"/>
      <path id="Path_2401" data-name="Path 2401" d="M278.459,204.919a1.1,1.1,0,0,1-.209.719.726.726,0,0,1-.6.255.7.7,0,0,1-.576-.263,1.316,1.316,0,0,1-.005-1.425.711.711,0,0,1,.581-.251.727.727,0,0,1,.587.26A1.063,1.063,0,0,1,278.459,204.919Zm-.956.009a1.111,1.111,0,0,0,.04.35q.039.108.12.108c.054,0,.094-.035.119-.106a1.6,1.6,0,0,0,0-.7c-.025-.072-.065-.107-.119-.107s-.1.036-.121.109A1.132,1.132,0,0,0,277.5,204.928ZM280,204l-1.713,3.088h-.627L279.372,204Zm.809,2.15a1.1,1.1,0,0,1-.21.717.728.728,0,0,1-.6.255.7.7,0,0,1-.575-.263,1.313,1.313,0,0,1-.005-1.423.709.709,0,0,1,.58-.251.727.727,0,0,1,.587.26A1.063,1.063,0,0,1,280.808,206.148Zm-.957.009a1.053,1.053,0,0,0,.041.35q.039.108.12.108c.06,0,.1-.041.125-.123a1.621,1.621,0,0,0,0-.67c-.023-.082-.065-.123-.125-.123s-.1.036-.122.109A1.132,1.132,0,0,0,279.851,206.157Z" fill="#ff831d"/>
    </g>
    <g id="Group_100" data-name="Group 100" transform="translate(178.318 207.314)">
      <path id="Path_2402" data-name="Path 2402" d="M275.729,217.842a12.107,12.107,0,1,1,12.108-12.108A12.121,12.121,0,0,1,275.729,217.842Zm0-23.66a11.553,11.553,0,1,0,11.553,11.552A11.565,11.565,0,0,0,275.729,194.182Z" fill="#ff831d"/>
    </g>
    <path id="Path_2403" data-name="Path 2403" d="M270.261,218.678a14.051,14.051,0,0,1,5.468-26.992v4.436a9.615,9.615,0,0,0-3.74,18.471Z" transform="translate(178.318 207.314)" fill="#ffbd1a"/>
  </g>
</svg>
