<svg xmlns="http://www.w3.org/2000/svg" width="28.096" height="28.097" viewBox="0 0 28.096 28.097">
  <g id="Group_106" data-name="Group 106" transform="translate(-512.87 -399)">
    <path id="Path_2390" data-name="Path 2390" d="M345.033,207.085l1.06-2.393h-1.336V204h2.227v.492l-1.088,2.591Z" transform="translate(178.318 207.314)" fill="#668e19"/>
    <path id="Path_2391" data-name="Path 2391" d="M348.528,205.062a.954.954,0,0,1,.481.123.858.858,0,0,1,.333.35,1.093,1.093,0,0,1,.12.522,1.011,1.011,0,0,1-.312.794,1.388,1.388,0,0,1-.943.276,2.012,2.012,0,0,1-.883-.167v-.684a2.218,2.218,0,0,0,.415.14,1.8,1.8,0,0,0,.4.054.561.561,0,0,0,.356-.1.346.346,0,0,0,.125-.29.332.332,0,0,0-.127-.277.619.619,0,0,0-.384-.1,1.358,1.358,0,0,0-.424.074l-.307-.152.116-1.63h1.762v.694H348.2l-.038.408a1.859,1.859,0,0,1,.234-.035Z" transform="translate(178.318 207.314)" fill="#668e19"/>
    <g id="Group_102" data-name="Group 102">
      <path id="Path_2392" data-name="Path 2392" d="M351.33,204.918a1.1,1.1,0,0,1-.209.719.726.726,0,0,1-.6.255.7.7,0,0,1-.576-.263,1.316,1.316,0,0,1-.005-1.425.711.711,0,0,1,.581-.251.727.727,0,0,1,.587.26A1.063,1.063,0,0,1,351.33,204.918Zm-.956.009a1.111,1.111,0,0,0,.04.35q.039.108.12.108c.054,0,.094-.035.119-.106a1.6,1.6,0,0,0,0-.7c-.025-.072-.065-.107-.119-.107s-.1.036-.121.109A1.132,1.132,0,0,0,350.374,204.927Zm2.5-.929-1.713,3.087h-.627L352.243,204Zm.809,2.15a1.1,1.1,0,0,1-.21.716.728.728,0,0,1-.6.255.7.7,0,0,1-.575-.263,1.313,1.313,0,0,1-.005-1.423.711.711,0,0,1,.58-.251.727.727,0,0,1,.587.26A1.064,1.064,0,0,1,353.679,206.148Zm-.957.008a1.048,1.048,0,0,0,.041.35q.039.108.12.108c.06,0,.1-.041.125-.123a1.621,1.621,0,0,0,0-.67c-.023-.082-.065-.123-.125-.123s-.1.036-.122.109A1.132,1.132,0,0,0,352.722,206.156Z" transform="translate(178.318 207.314)" fill="#668e19"/>
      <path id="Path_2396" data-name="Path 2396" d="M348.6,217.842a12.107,12.107,0,1,1,12.108-12.108A12.122,12.122,0,0,1,348.6,217.842Zm0-23.66a11.553,11.553,0,1,0,11.553,11.552A11.565,11.565,0,0,0,348.6,194.182Z" transform="translate(178.318 207.314)" fill="#668e19"/>
      <path id="Path_2398" data-name="Path 2398" d="M348.6,219.783a14.049,14.049,0,0,1,0-28.1v4.436a9.613,9.613,0,1,0,9.613,9.612h4.435A14.064,14.064,0,0,1,348.6,219.783Z" transform="translate(178.318 207.314)" fill="#8dc63f"/>
    </g>
  </g>
</svg>
