<svg xmlns="http://www.w3.org/2000/svg" width="26.415" height="28.097" viewBox="0 0 26.415 28.097">
  <g id="Group_103" data-name="Group 103" transform="translate(-476.218 -399)">
    <path id="Path_2384" data-name="Path 2384" d="M308.266,205.781a2.509,2.509,0,0,1,.185-1.047,1.222,1.222,0,0,1,.544-.589,1.883,1.883,0,0,1,.889-.191,3.155,3.155,0,0,1,.439.036v.653a2.44,2.44,0,0,0-.459-.041.914.914,0,0,0-.623.184.825.825,0,0,0-.223.6h.025a.64.64,0,0,1,.61-.359.794.794,0,0,1,.639.265,1.288,1.288,0,0,1-.06,1.541,1.223,1.223,0,0,1-1.658-.06A1.465,1.465,0,0,1,308.266,205.781Zm1.144.686a.269.269,0,0,0,.217-.1.5.5,0,0,0,.083-.32q0-.376-.291-.376a.307.307,0,0,0-.234.1.34.34,0,0,0-.089.237.583.583,0,0,0,.087.332A.26.26,0,0,0,309.41,206.467Z" transform="translate(178.318 207.314)" fill="#ed4f54"/>
    <path id="Path_2385" data-name="Path 2385" d="M313.034,205.546a2.086,2.086,0,0,1-.274,1.2.967.967,0,0,1-.841.381.954.954,0,0,1-.834-.4,2.055,2.055,0,0,1-.28-1.184,2.1,2.1,0,0,1,.274-1.208.966.966,0,0,1,.84-.384.956.956,0,0,1,.834.4A2.075,2.075,0,0,1,313.034,205.546Zm-1.4,0a2.634,2.634,0,0,0,.065.721c.043.131.116.2.219.2s.178-.068.221-.2a4.006,4.006,0,0,0,0-1.432c-.043-.138-.117-.206-.22-.206s-.176.066-.219.2A2.672,2.672,0,0,0,311.635,205.546Z" transform="translate(178.318 207.314)" fill="#ed4f54"/>
    <path id="Path_2386" data-name="Path 2386" d="M314.856,204.919a1.1,1.1,0,0,1-.209.719.722.722,0,0,1-.594.255.7.7,0,0,1-.576-.263,1.316,1.316,0,0,1-.005-1.425.71.71,0,0,1,.581-.251.728.728,0,0,1,.587.26A1.068,1.068,0,0,1,314.856,204.919Zm-.956.009a1.111,1.111,0,0,0,.04.35q.041.108.12.108c.054,0,.094-.035.12-.106a1.6,1.6,0,0,0,0-.7c-.026-.072-.066-.107-.12-.107s-.094.036-.121.109A1.132,1.132,0,0,0,313.9,204.928Zm2.5-.93-1.712,3.088h-.627L315.769,204Zm.809,2.15a1.094,1.094,0,0,1-.21.717.728.728,0,0,1-.6.255.7.7,0,0,1-.575-.263,1.313,1.313,0,0,1-.005-1.423.711.711,0,0,1,.58-.251.726.726,0,0,1,.587.26A1.058,1.058,0,0,1,317.2,206.148Zm-.957.009a1.08,1.08,0,0,0,.041.35q.039.108.12.108c.061,0,.1-.041.125-.123a1.621,1.621,0,0,0,0-.67c-.022-.082-.064-.123-.125-.123s-.1.036-.122.109A1.165,1.165,0,0,0,316.248,206.157Z" transform="translate(178.318 207.314)" fill="#ed4f54"/>
    <path id="Path_2393" data-name="Path 2393" d="M311.948,217.842a12.107,12.107,0,1,1,12.109-12.108A12.121,12.121,0,0,1,311.948,217.842Zm0-23.66A11.553,11.553,0,1,0,323.5,205.734,11.566,11.566,0,0,0,311.948,194.182Z" transform="translate(178.318 207.314)" fill="#ed7c76"/>
    <path id="Path_2394" data-name="Path 2394" d="M311.948,219.783a14.049,14.049,0,1,1,0-28.1v4.436a9.613,9.613,0,1,0,8.465,14.173l3.9,2.109A14.044,14.044,0,0,1,311.948,219.783Z" transform="translate(178.318 207.314)" fill="#ef4136"/>
  </g>
</svg>
